<?xml version="1.0" encoding="utf-8"?>
<!-- Generator: Adobe Illustrator 27.5.0, SVG Export Plug-In . SVG Version: 6.00 Build 0)  -->
<svg version="1.1" xmlns="http://www.w3.org/2000/svg" xmlns:xlink="http://www.w3.org/1999/xlink" x="0px" y="0px"
	 viewBox="0 0 500 500" style="enable-background:new 0 0 500 500;" xml:space="preserve">
<g id="Clipboard_00000005951261862479633660000003687137660437923511_">
	<g id="Clipboard">
		<path style="fill:#303030;" d="M415.915,390.842H213.34c-10.047,0-18.192-8.145-18.192-18.192V70.568
			c0-10.047,8.145-18.192,18.192-18.192h202.575c10.047,0,18.192,8.145,18.192,18.192V372.65
			C434.107,382.697,425.962,390.842,415.915,390.842z"/>
		<path style="fill:#F55571;" d="M421.328,390.842H218.753c-10.047,0-18.192-8.145-18.192-18.192V70.568
			c0-10.047,8.145-18.192,18.192-18.192h202.575c10.047,0,18.192,8.145,18.192,18.192V372.65
			C439.52,382.697,431.375,390.842,421.328,390.842z"/>
		<g>
			<rect x="212.808" y="84.828" style="fill:#303030;" width="205.156" height="283.454"/>
			<g>
				
					<polygon style="fill:#FFFFFF;stroke:#303030;stroke-width:1.5;stroke-linecap:round;stroke-linejoin:round;stroke-miterlimit:10;" points="
					421.012,364.299 217.463,364.299 217.463,80.845 422.619,80.845 422.619,320.789 421.012,323.063 				"/>
				<g>
					
						<path style="fill:#FFFFFF;stroke:#FF95FB;stroke-width:1.5;stroke-linecap:round;stroke-linejoin:round;stroke-miterlimit:10;" d="
						M274.236,146.553h-28.217c-1.475,0-2.671-1.196-2.671-2.671v-28.217c0-1.475,1.196-2.671,2.671-2.671h28.217
						c1.475,0,2.671,1.196,2.671,2.671v28.217C276.907,145.357,275.711,146.553,274.236,146.553z"/>
					
						<path style="fill:#FFFFFF;stroke:#FF95FB;stroke-width:1.5;stroke-linecap:round;stroke-linejoin:round;stroke-miterlimit:10;" d="
						M274.236,194.992h-28.217c-1.475,0-2.671-1.196-2.671-2.671v-28.217c0-1.475,1.196-2.671,2.671-2.671h28.217
						c1.475,0,2.671,1.196,2.671,2.671v28.217C276.907,193.796,275.711,194.992,274.236,194.992z"/>
					
						<path style="fill:#FFFFFF;stroke:#FF95FB;stroke-width:1.5;stroke-linecap:round;stroke-linejoin:round;stroke-miterlimit:10;" d="
						M274.236,243.431h-28.217c-1.475,0-2.671-1.196-2.671-2.671v-28.217c0-1.475,1.196-2.671,2.671-2.671h28.217
						c1.475,0,2.671,1.196,2.671,2.671v28.217C276.907,242.235,275.711,243.431,274.236,243.431z"/>
					
						<path style="fill:#FFFFFF;stroke:#FF95FB;stroke-width:1.5;stroke-linecap:round;stroke-linejoin:round;stroke-miterlimit:10;" d="
						M274.236,291.871h-28.217c-1.475,0-2.671-1.196-2.671-2.671v-28.217c0-1.475,1.196-2.671,2.671-2.671h28.217
						c1.475,0,2.671,1.196,2.671,2.671v28.217C276.907,290.675,275.711,291.871,274.236,291.871z"/>
					
						<path style="fill:#FFFFFF;stroke:#FF95FB;stroke-width:1.5;stroke-linecap:round;stroke-linejoin:round;stroke-miterlimit:10;" d="
						M274.236,340.31h-28.217c-1.475,0-2.671-1.196-2.671-2.671v-28.217c0-1.475,1.196-2.671,2.671-2.671h28.217
						c1.475,0,2.671,1.196,2.671,2.671v28.217C276.907,339.114,275.711,340.31,274.236,340.31z"/>
					<path style="fill:#00826F;" d="M286.189,115.793l-22.17,25.42l-13.2-12.58c-1.75-1.67-2.1-4.44-0.6-6.34
						c1.71-2.19,4.88-2.38,6.84-0.5l6.34,6.03l15.94-18.27c1.78-2.04,4.95-2.15,6.86-0.14
						C287.869,111.173,287.779,113.963,286.189,115.793z"/>
					<g>
						<path style="fill:#FF95FB;" d="M352.004,119.269h-49.287c-1.474,0-2.668-1.195-2.668-2.668v-0.939
							c0-1.474,1.195-2.668,2.668-2.668h49.287c1.474,0,2.668,1.195,2.668,2.668v0.939
							C354.672,118.074,353.478,119.269,352.004,119.269z"/>
						
							<line style="fill:none;stroke:#303030;stroke-width:1.5;stroke-linecap:round;stroke-linejoin:round;stroke-miterlimit:10;" x1="300.049" y1="129.773" x2="393.86" y2="129.773"/>
						
							<line style="fill:none;stroke:#303030;stroke-width:1.5;stroke-linecap:round;stroke-linejoin:round;stroke-miterlimit:10;" x1="300.049" y1="138.048" x2="393.86" y2="138.048"/>
						
							<line style="fill:none;stroke:#303030;stroke-width:1.5;stroke-linecap:round;stroke-linejoin:round;stroke-miterlimit:10;" x1="300.049" y1="146.323" x2="393.86" y2="146.323"/>
					</g>
					<g>
						<path style="fill:#FF95FB;" d="M352.004,167.822h-49.287c-1.474,0-2.668-1.195-2.668-2.668v-0.939
							c0-1.474,1.195-2.668,2.668-2.668h49.287c1.474,0,2.668,1.195,2.668,2.668v0.939
							C354.672,166.628,353.478,167.822,352.004,167.822z"/>
						
							<line style="fill:none;stroke:#303030;stroke-width:1.5;stroke-linecap:round;stroke-linejoin:round;stroke-miterlimit:10;" x1="300.049" y1="178.327" x2="393.86" y2="178.327"/>
						
							<line style="fill:none;stroke:#303030;stroke-width:1.5;stroke-linecap:round;stroke-linejoin:round;stroke-miterlimit:10;" x1="300.049" y1="186.602" x2="393.86" y2="186.602"/>
						
							<line style="fill:none;stroke:#303030;stroke-width:1.5;stroke-linecap:round;stroke-linejoin:round;stroke-miterlimit:10;" x1="300.049" y1="194.877" x2="393.86" y2="194.877"/>
					</g>
					<g>
						<path style="fill:#FF95FB;" d="M352.004,216.376h-49.287c-1.474,0-2.668-1.195-2.668-2.668v-0.939
							c0-1.474,1.195-2.668,2.668-2.668h49.287c1.474,0,2.668,1.195,2.668,2.668v0.939
							C354.672,215.182,353.478,216.376,352.004,216.376z"/>
						
							<line style="fill:none;stroke:#303030;stroke-width:1.5;stroke-linecap:round;stroke-linejoin:round;stroke-miterlimit:10;" x1="300.049" y1="226.881" x2="393.86" y2="226.881"/>
						
							<line style="fill:none;stroke:#303030;stroke-width:1.5;stroke-linecap:round;stroke-linejoin:round;stroke-miterlimit:10;" x1="300.049" y1="235.156" x2="393.86" y2="235.156"/>
						
							<line style="fill:none;stroke:#303030;stroke-width:1.5;stroke-linecap:round;stroke-linejoin:round;stroke-miterlimit:10;" x1="300.049" y1="243.431" x2="393.86" y2="243.431"/>
					</g>
					<g>
						<path style="fill:#FF95FB;" d="M352.004,264.93h-49.287c-1.474,0-2.668-1.195-2.668-2.668v-0.939
							c0-1.474,1.195-2.668,2.668-2.668h49.287c1.474,0,2.668,1.195,2.668,2.668v0.939
							C354.672,263.736,353.478,264.93,352.004,264.93z"/>
						
							<line style="fill:none;stroke:#303030;stroke-width:1.5;stroke-linecap:round;stroke-linejoin:round;stroke-miterlimit:10;" x1="300.049" y1="275.435" x2="393.86" y2="275.435"/>
						
							<line style="fill:none;stroke:#303030;stroke-width:1.5;stroke-linecap:round;stroke-linejoin:round;stroke-miterlimit:10;" x1="300.049" y1="283.71" x2="393.86" y2="283.71"/>
						
							<line style="fill:none;stroke:#303030;stroke-width:1.5;stroke-linecap:round;stroke-linejoin:round;stroke-miterlimit:10;" x1="300.049" y1="291.985" x2="393.86" y2="291.985"/>
					</g>
					<g>
						<path style="fill:#FF95FB;" d="M352.004,313.484h-49.287c-1.474,0-2.668-1.194-2.668-2.668v-0.939
							c0-1.474,1.195-2.668,2.668-2.668h49.287c1.474,0,2.668,1.195,2.668,2.668v0.939
							C354.672,312.29,353.478,313.484,352.004,313.484z"/>
						
							<line style="fill:none;stroke:#303030;stroke-width:1.5;stroke-linecap:round;stroke-linejoin:round;stroke-miterlimit:10;" x1="300.049" y1="323.989" x2="393.86" y2="323.989"/>
						
							<line style="fill:none;stroke:#303030;stroke-width:1.5;stroke-linecap:round;stroke-linejoin:round;stroke-miterlimit:10;" x1="300.049" y1="332.264" x2="393.86" y2="332.264"/>
						
							<line style="fill:none;stroke:#303030;stroke-width:1.5;stroke-linecap:round;stroke-linejoin:round;stroke-miterlimit:10;" x1="300.049" y1="340.539" x2="393.86" y2="340.539"/>
					</g>
				</g>
				<path style="fill:#303030;" d="M359.17,364.326c15.338-6.916,24.9-26.832,31.547-45.46l18.253,5.88
					C408.971,324.746,395.487,356.36,359.17,364.326z"/>
				
					<path style="fill:#FFFFFF;stroke:#303030;stroke-width:1.5;stroke-linecap:round;stroke-linejoin:round;stroke-miterlimit:10;" d="
					M362.914,364.326c18.816-7.471,33.035-30.63,38.382-50.405l21.322,6.869C422.619,320.789,399.231,356.36,362.914,364.326z"/>
			</g>
		</g>
		<g>
			<path style="fill:none;stroke:#303030;stroke-width:3;stroke-linecap:round;stroke-linejoin:round;stroke-miterlimit:10;" d="
				M379.95,71.911h6.594c1.731,0,3.134,1.403,3.134,3.134v13.061c0,1.731-1.403,3.134-3.134,3.134h-46.219
				c-3.046,0-6.094,0.571-8.835,1.899c-2.301,1.115-6.565,1.863-11.446,1.863c-4.881,0-9.145-0.749-11.446-1.863
				c-2.742-1.328-5.789-1.899-8.835-1.899h-46.219c-1.731,0-3.134-1.403-3.134-3.134V75.045c0-1.731,1.403-3.134,3.134-3.134h6.585"
				/>
			<path style="fill:#00826F;" d="M376.628,63.063H263.453c-1.837,0-3.326,1.489-3.326,3.326v11.038
				c0,1.837,1.489,3.326,3.326,3.326h113.174c1.837,0,3.326-1.489,3.326-3.326V66.389C379.954,64.552,378.465,63.063,376.628,63.063
				z"/>
			<path style="fill:#303030;" d="M379.95,74.446v3.499c0,1.547-1.251,2.806-2.806,2.806H262.942c-1.555,0-2.814-1.259-2.814-2.806
				v-3.499c0,1.547,1.259,2.806,2.814,2.806h114.202C378.699,77.252,379.95,75.993,379.95,74.446z"/>
			<path style="fill:#FFFFFF;" d="M376.603,68.41h-47c-0.73,0-1.323-0.592-1.323-1.323v-0.465c0-0.731,0.592-1.323,1.323-1.323h47
				c0.73,0,1.323,0.592,1.323,1.323v0.465C377.926,67.818,377.333,68.41,376.603,68.41z"/>
			<path style="fill:#FFFFFF;" d="M322.321,68.41h-1.864c-0.73,0-1.323-0.592-1.323-1.323v-0.465c0-0.731,0.592-1.323,1.323-1.323
				h1.864c0.73,0,1.323,0.592,1.323,1.323v0.465C323.644,67.818,323.052,68.41,322.321,68.41z"/>
		</g>
	</g>
</g>
<g id="Character">
	<g id="Character_00000173848331646912323360000009153567474946561931_">
		<g id="Arm_00000015337524247076530460000015068983096835057823_">
			<path style="fill:#FFC4B0;" d="M89.077,176.73c-6.315,1.592-8.34,5.203-10.894,11.701c-2.286,5.817-6.879,18.443-8.175,22.079
				c-2.712,7.603-3.39,9.302,9.22,22.382c12.809,13.287,14.778,15.489,14.778,15.489v-45.181L89.077,176.73z"/>
			<path style="fill:#303030;" d="M88.043,175.648c-4.544,1.653-6.411,3.43-9.198,9.46c-2.787,6.03-4.912,11.858-4.912,11.858
				s3.422,10.254,18.539,12.237l3.941-32.358L88.043,175.648z"/>
		</g>
		<g id="Pencil_00000052802687095233681150000013438972791297571469_">
			
				<path style="fill:#FF95FB;stroke:#303030;stroke-width:1.5;stroke-linecap:round;stroke-linejoin:round;stroke-miterlimit:10;" d="
				M214.925,142.329l14.619,25.32L58.36,266.482c-1.846,1.066-4.207,0.433-5.273-1.413l-10.759-18.634
				c-1.066-1.846-0.433-4.207,1.413-5.273L214.925,142.329z"/>
			
				<path style="fill:#FF95FB;stroke:#303030;stroke-width:1.5;stroke-linecap:round;stroke-linejoin:round;stroke-miterlimit:10;" d="
				M211.879,151.416l1.963,3.399c0.378,0.655,0.154,1.492-0.501,1.87L53.624,248.898c-0.655,0.378-1.492,0.154-1.87-0.501
				l-1.963-3.399c-0.378-0.655-0.154-1.492,0.501-1.87l159.716-92.212C210.663,150.537,211.501,150.762,211.879,151.416z"/>
			
				<path style="fill:#303030;stroke:#303030;stroke-width:1.5;stroke-linecap:round;stroke-linejoin:round;stroke-miterlimit:10;" d="
				M43.085,247.745l9.269,16.054l-2.954,1.706c-1.846,1.066-4.207,0.433-5.273-1.413l-5.409-9.369
				c-1.066-1.846-0.433-4.207,1.413-5.273L43.085,247.745z"/>
			
				<path style="fill:#FFFFFF;stroke:#303030;stroke-width:1.5;stroke-linecap:round;stroke-linejoin:round;stroke-miterlimit:10;" d="
				M229.543,167.65l19.868-26.998c0.653-0.888-0.061-2.128-1.157-2.009l-33.33,3.687L229.543,167.65z"/>
			
				<path style="fill:#303030;stroke:#303030;stroke-width:1.5;stroke-linecap:round;stroke-linejoin:round;stroke-miterlimit:10;" d="
				M248.254,138.643l-11.961,1.323l5.982,10.383l7.136-9.697C250.065,139.763,249.35,138.523,248.254,138.643z"/>
		</g>
		<g id="Legs_00000154399196726522157860000018097235813055549059_">
			<g id="Leg_00000153697961283971435400000016949851677887949213_">
				<path style="fill:#FFC4B0;" d="M128.155,231.383H92.814c-7.789,11.458-8.969,16.932-10.079,32.209
					c-1.11,15.277,2.596,71.252,1.662,80.47c-0.933,9.218-1.42,18.105,0.109,33.41c1.596,15.966,4.087,36.833,5.064,49.079
					c0.678,8.509-7.585,23.145,7.92,23.145c15.97,0,9.133-14.825,9.311-22.532c0.401-17.383,8.807-91.165,11.792-110.395
					C121.578,297.539,128.155,231.383,128.155,231.383z"/>
			</g>
			<g id="Leg_00000093158158074776926280000014054702097732456847_">
				<g>
					<path style="fill:#FFC4B0;" d="M106.897,261.018c-0.586-18.407-0.563-28.159-0.563-28.159l37.604-0.637
						c4.036,26.291,16.372,91.548,18.693,111.918c1.673,14.684,2.946,50.903,4.51,75.791c0.644,10.24,3.868,11.547,8.042,16.089
						c4.448,4.839,8.593,4.806,13.844,7.623c5.251,2.816,4.331,8.572,0.146,8.572c-4.184,0-17.214,0-17.214,0s-16.089,0-20.583,0
						c-4.494,0-6.411-2.945-5.933-8.407c0.432-4.939,1.831-9.599,1.465-14.316c-1.193-15.368-7.358-23.336-13.12-49.579
						c-1.722-7.844-2.283-18.205-3.662-26.808c0,0-5.618-23.485-10.184-40.875C115.377,294.841,107.444,278.211,106.897,261.018z"/>
				</g>
			</g>
			<g id="Pants_00000010995615700166972880000003149370049600121531_">
				<path style="fill:#00826F;" d="M162.08,331.387c-2.59-21.941-10-69.919-18.286-102.685c-20.173,2.945-37.344,3.915-54.164,0.743
					c-5.64,13.414-8.824,20.613-8.714,41.676c0.11,21.064,2.985,61.378,2.467,67.797c-0.518,6.419-2.347,19.944-1.504,31.53
					c0.912,12.534,2.43,31.064,2.43,31.064c9.305,2.136,18.07,2.103,27.311-0.048l7.732-81.195c0,0,6.992,26.336,8.028,30.575
					c1.036,4.239,2.331,20.036,4.661,29.398c2.331,9.362,5.697,18.723,5.697,18.723c11.748-0.865,21.513-3.579,28.928-8.484
					C166.665,390.483,164.669,353.329,162.08,331.387z"/>
				<g>
					
						<path style="fill:none;stroke:#303030;stroke-width:1.5;stroke-linecap:round;stroke-linejoin:round;stroke-miterlimit:10;" d="
						M107.737,231.383c-4.875,11.209-4.405,24.567-2.216,38.429c2.189,13.862,10.91,37.467,14.635,53.493"/>
					
						<path style="fill:none;stroke:#303030;stroke-width:1.5;stroke-linecap:round;stroke-linejoin:round;stroke-miterlimit:10;" d="
						M115.137,304.934c-1.109,24.874-7.899,93.363-7.899,93.363"/>
					
						<path style="fill:none;stroke:#303030;stroke-width:1.5;stroke-linecap:round;stroke-linejoin:round;stroke-miterlimit:10;" d="
						M86.881,236.447c4.646,0,14.387,4.525,17.058,10.94c6.756-8.255,26.885-11.103,42.044-9.604"/>
					
						<path style="fill:none;stroke:#303030;stroke-width:1.5;stroke-linecap:round;stroke-linejoin:round;stroke-miterlimit:10;" d="
						M83.261,246.834c5.146,0,8.521,0.755,13.874,2.522c0,0-0.521,6.08-0.884,14.537c-0.07,1.637-0.819,3.149-2.045,4.035
						l-3.373,2.437c-1.802,1.302-4.147,0.959-5.603-0.789c-1.173-1.408-2.52-3.255-3.593-5.366
						c-0.429-0.844-0.639-1.814-0.582-2.788C81.57,252.696,83.261,246.834,83.261,246.834z"/>
					
						<path style="fill:none;stroke:#303030;stroke-width:1.5;stroke-linecap:round;stroke-linejoin:round;stroke-miterlimit:10;" d="
						M111.065,250.258c7.936-2.871,14.352-3.474,21.465-2.871l2.872,14.994c0.259,1.665-0.246,3.364-1.343,4.514l-6.205,6.506
						c-1.454,1.525-3.631,1.765-5.319,0.586l-7.523-5.256c-1.087-0.759-1.821-2.017-2.037-3.44
						C112.212,260.234,111.392,256.166,111.065,250.258z"/>
					
						<path style="fill:none;stroke:#303030;stroke-width:1.5;stroke-linecap:round;stroke-linejoin:round;stroke-miterlimit:10;" d="
						M137.973,228.703c15.538,56.809,22.86,163.523,22.86,163.523"/>
				</g>
				
					<path style="fill:#FFFFFF;stroke:#303030;stroke-width:1.5;stroke-linecap:round;stroke-linejoin:round;stroke-miterlimit:10;" d="
					M136.09,393.417c9.322,1.107,21.822-0.492,30.484-4.912l0.091,8.657c-7.312,4.975-18.211,6.063-28.764,4.823L136.09,393.417z"/>
				
					<path style="fill:#FFFFFF;stroke:#303030;stroke-width:1.5;stroke-linecap:round;stroke-linejoin:round;stroke-miterlimit:10;" d="
					M83.509,397.258c7.824,2.012,20.215,2.419,29.502-0.129l-0.737,8.413c-7.956,3.205-21.474,2.657-28.127,0.309L83.509,397.258z"
					/>
			</g>
			<g>
				
					<path style="fill:#FFFFFF;stroke:#303030;stroke-width:1.5;stroke-linecap:round;stroke-linejoin:round;stroke-miterlimit:10;" d="
					M146.017,430.717c0.245-3.555-0.734-7.517-1.55-9.821c-0.816-2.303-1.568-4.354-0.294-5.54l0.793,2.821
					c0,0,6.352,1.337,12.469,0.784c6.117-0.553,9.466-2.955,9.466-2.955l-0.15-2.575c0,0,1.612-0.275,1.531,3.687
					c-0.082,3.962,0.408,8.937,0.979,10.596c0.571,1.659,6.027,7.635,9.624,9.859c3.597,2.224,10.277,4.975,11.582,7.095
					c1.305,2.119,3.589,7.095-4.649,7.832c-8.237,0.737-40.127,0-40.127,0L146.017,430.717z"/>
				<path style="fill:#303030;" d="M143.912,426.249c3.467-3.049,11.121-2.013,14.674-0.399c2.159,0.981,3.672,2.875,6.53,4.125
					c0.932,0.408,2.35,1.008,3.812,1.045c0,0-1.293-2.573-1.293-4.171c0-2.669,3.703-3.25,3.703-3.25s1.482,3.062,5.146,6.161
					c6.359,5.376,12.512,6.781,17.533,8.897c3.359,1.416,11.066,4.37,10.614,11.027h-31.793c-9.042,2.206-20.563,2.066-30.817,0.012
					C141.708,437.014,145.162,438.743,143.912,426.249z"/>
				
					<path style="fill:#FFFFFF;stroke:#303030;stroke-width:1.5;stroke-linecap:round;stroke-linejoin:round;stroke-miterlimit:10;" d="
					M203.877,449.683c0,0-17.585,1.252-26.688-0.396l0,0c-2.52-0.302-5.078-0.187-7.547,0.367c-1.155,0.259-2.571,0.549-4.193,0.827
					c-6.81,1.168-19.744,0.438-22.65-0.798v3.99c0,1.777,1.372,3.31,3.27,3.624c5.414,0.895,15.417,0.434,19.38,0.03
					c2-0.204,3.512-0.46,4.638-0.71c2.512-0.558,4.378-0.932,7.669-0.451c5.296,0.776,14.391,1.175,22.435,0.669
					c2.082-0.131,3.685-1.747,3.685-3.671c0-0.019,0-0.038,0-0.057V449.683z"/>
				<g>
					<g>
						<path style="fill:#FFFFFF;" d="M148.462,427.328c0.15,2.252,0.083,4.431-0.28,6.663c-0.341,2.103-0.62,4.177-0.649,6.312
							c-0.013,0.965,1.487,0.966,1.5,0c0.029-2.115,0.319-4.153,0.648-6.236c0.357-2.258,0.434-4.461,0.282-6.739
							C149.898,426.37,148.397,426.363,148.462,427.328L148.462,427.328z"/>
					</g>
				</g>
				
					<path style="fill:#FFFFFF;stroke:#303030;stroke-width:1.5;stroke-linecap:round;stroke-linejoin:round;stroke-miterlimit:10;" d="
					M187.554,436.683c3.193,2.033,5.182,6.179,5.273,13.012h11.05C203.587,443.882,203.079,442.15,187.554,436.683z"/>
				<g>
					<g>
						<path style="fill:#FFFFFF;" d="M164.193,429.426c0.898,0.512,1.843,0.945,2.838,1.23c0.705,0.202,1.431,0.314,2.139,0.501
							c1.242,0.328,2.167,1.074,3.12,1.897c2.305,1.991,4.794,3.733,7.339,5.402c0.81,0.531,1.562-0.767,0.757-1.295
							c-2.487-1.631-4.908-3.328-7.159-5.274c-1.037-0.896-2.074-1.71-3.409-2.107c-0.688-0.205-1.401-0.311-2.095-0.491
							c-0.984-0.255-1.892-0.656-2.774-1.159C164.11,427.652,163.353,428.948,164.193,429.426L164.193,429.426z"/>
					</g>
				</g>
			</g>
			<g>
				
					<path style="fill:#FFFFFF;stroke:#303030;stroke-width:1.5;stroke-linecap:round;stroke-linejoin:round;stroke-miterlimit:10;" d="
					M88.965,430.679c-0.108-3.189-0.481-5.114-0.721-7.588c-0.24-2.475,3.493-4.289,9.919-4.124
					c6.426,0.165,10.196,1.485,10.036,3.794c-0.16,2.31-0.806,7.918-0.806,7.918H88.965z"/>
				<path style="fill:#303030;" d="M109.391,438.451c-0.532-3.243-0.514-7.354-0.515-10.277c0-0.554-0.311-1.053-0.774-1.234
					c-6.028-2.345-13.9-2.337-19.886,0c-0.463,0.181-0.773,0.679-0.773,1.233c-0.001,2.924,0.017,7.035-0.515,10.279
					c-0.589,3.594-0.943,7.944-0.943,12.292c8.163,1.834,16.28,1.856,24.349,0C110.333,446.395,109.98,442.045,109.391,438.451z"/>
				
					<path style="fill:#FFFFFF;stroke:#303030;stroke-width:1.5;stroke-linecap:round;stroke-linejoin:round;stroke-miterlimit:10;" d="
					M107.433,456.701c-6.183,1.481-12.366,1.481-18.549,0c-1.324-0.317-2.275-1.638-2.275-3.167v-3.411c7.7,1.754,15.4,1.754,23.1,0
					v3.411C109.709,455.064,108.757,456.384,107.433,456.701z"/>
				<g>
					<g>
						<path style="fill:#FFFFFF;" d="M97.509,427.628c0,4.324,0,8.648,0,12.972c0,0.965,1.5,0.967,1.5,0c0-4.324,0-8.648,0-12.972
							C99.009,426.663,97.509,426.662,97.509,427.628L97.509,427.628z"/>
					</g>
				</g>
			</g>
		</g>
		<g id="Head_00000028287880267214258540000005464186416823713414_">
			<path style="fill:#303030;" d="M129.45,146.282c-0.776,10.613-10.292,18.566-21.255,17.764s-18.237-11.439-17.461-22.051
				c0.776-10.612,9.364-17.666,20.408-18.933C124.48,121.808,136.646,126.167,129.45,146.282z"/>
			<g>
				<path style="fill:#FFC4B0;" d="M131.086,145.985c-0.186-1.137-1.343-2.681-2.019-5.145c-0.387-1.41,0.112-2.654-0.478-4.295
					c-1.223-3.404-4.971-6.231-10.234-6.921c0.817,8.697-9.324,16.688-9.324,16.688c0.728,1.702,2.733,5.162,2.733,5.162
					l-0.824,10.514c-1.86,1.057-6.48,1.12-8.686,0.722l-1.195,8.959l-4.806,2.11c0,0-3.598,8.542,6.504,8.025
					c9.438-0.483,21.422-8.552,21.422-8.552l-7.117-2.997l-0.531-7.079C125.849,164.038,133.577,161.253,131.086,145.985z"/>
			</g>
			<path style="fill:#303030;" d="M90.692,142.518c-0.548,6.991-0.88,11.228-1.229,15.689c-0.558,7.126,2.058,8.629,5.16,9.38
				c-1.812-2.097-1.242-3.945-1.242-3.945c2.104,3.905,6.512,5.934,13.64,5.803c5.965-0.109,9.489-1.228,10.938-1.814
				c0.299-0.121,0.313-0.534,0.023-0.674c-1.972-0.947-7.105-4.145-6.523-11.567l0.307-3.916L90.692,142.518z"/>
			<g>
				
					<path style="fill:#FFC4B0;stroke:#303030;stroke-width:1.5;stroke-linecap:round;stroke-linejoin:round;stroke-miterlimit:10;" d="
					M110.848,144.61c-1.306-1.228-3.639-1.858-6.005-0.594c-2.136,1.142-3.041,3.574-2.403,5.75
					c0.631,2.151,2.551,3.447,4.558,3.798c2.452,0.429,4.134-0.625,5.323-1.805"/>
				<g>
					
						<path style="fill:none;stroke:#303030;stroke-width:1.5;stroke-linecap:round;stroke-linejoin:round;stroke-miterlimit:10;" d="
						M105.709,148.808c0.178-1.108,0.91-1.874,1.872-1.958c0.963-0.084,2.124,0.516,2.971,1.534"/>
					
						<path style="fill:none;stroke:#303030;stroke-width:1.5;stroke-linecap:round;stroke-linejoin:round;stroke-miterlimit:10;" d="
						M107.855,149.199c0.048-0.502,0.278-0.896,0.576-1.178c0.298-0.282,0.688-0.442,1.065-0.557"/>
				</g>
			</g>
			<g>
				<g>
					<g>
						<path style="fill:#FFFFFF;" d="M119.882,143.248c0,0,0.828-2.035,2.469-3.104c0.95-0.619,2.087-0.805,2.685-0.284
							c0.339,0.295,0.813,1.385,0.688,2.705C124.967,143.867,122.122,144.024,119.882,143.248z"/>
					</g>
					<path style="fill:#303030;" d="M125.271,141.695c0.134,1.127-0.495,2.104-1.404,2.182c-0.91,0.078-1.755-0.772-1.889-1.899
						c-0.134-1.127,0.495-2.104,1.404-2.182C124.291,139.718,125.137,140.568,125.271,141.695z"/>
					<polygon style="fill:#FFFFFF;" points="121.822,142.007 123.57,141.648 122.181,143.136 					"/>
					
						<path style="fill:none;stroke:#303030;stroke-width:1.5;stroke-linecap:round;stroke-linejoin:round;stroke-miterlimit:10;" d="
						M124.91,139.518c-0.792-0.105-1.641-0.129-2.837,0.817c-0.611,0.484-1.23,1.099-2.168,2.623"/>
					
						<path style="fill:none;stroke:#303030;stroke-width:1.5;stroke-linecap:round;stroke-linejoin:round;stroke-miterlimit:10;" d="
						M125.743,138.864c-0.365,0.68-1.081,0.783-1.95,0.819"/>
				</g>
				
					<path style="fill:#FFC4B0;stroke:#303030;stroke-width:1.5;stroke-linecap:round;stroke-linejoin:round;stroke-miterlimit:10;" d="
					M130.994,149.394c1.752-0.619,3.081-2.213,2.086-4.086c-0.42-0.79-1.27-1.227-1.986-1.762c-2.337-1.745-3.104-3.534-3.538-5.784
					"/>
				<path style="fill:none;stroke:#303030;stroke-width:1.5;stroke-linecap:round;stroke-linejoin:round;stroke-miterlimit:10;" d="
					M124.108,134.777c-1.18-0.092-3.881,0.727-5.895,3.045"/>
				<g>
					<path style="fill:#D48983;" d="M129.896,152.895c-1.79,0.784-3.887,0.84-5.716,0.152"/>
					<g>
						<path style="fill:#303030;" d="M129.518,152.248c-1.628,0.7-3.49,0.683-5.138,0.076c-0.38-0.14-0.822,0.157-0.923,0.524
							c-0.115,0.419,0.142,0.782,0.524,0.922c2.049,0.754,4.302,0.629,6.294-0.228c0.372-0.16,0.456-0.707,0.269-1.026
							C130.319,152.132,129.891,152.087,129.518,152.248L129.518,152.248z"/>
					</g>
				</g>
			</g>
			<path style="fill:#303030;" d="M116.329,160.687l0.203,2.489c3.961,0.367,7.703,0.179,10.509-1.65
				C122.185,162.703,116.329,160.687,116.329,160.687z"/>
		</g>
		<g id="Chest_00000070093667369232000840000015626772530712544133_">
			<path style="fill:#F55571;" d="M99.114,171.935c2.907,1.753,16.447,1.459,19.855-1.619h11.52
				c4.025,4.262,8.328,11.856,12.991,19.165c4.663,7.31,4.283,13.422-0.876,19.213c-0.083,15.423,4.903,18.77,0.398,21.229
				c-4.506,2.459-15.982,4.909-36.101,4.909c-8.2,0-16.489-1.915-18.46-4.234c-2.281-2.683,2.513-7.694,1.619-15.224
				c-0.925-7.786-4.154-15.518-4.836-20.162c-2.103-14.321,2.82-19.564,2.82-19.564L99.114,171.935z"/>
		</g>
		<g id="Arm_00000115479013712626697350000017458193311506334382_">
			<g id="Arm_00000163038509720033944210000017975469778526954927_">
				<path style="fill:#FFC4B0;" d="M164.547,201.196c6.972,0.9,8.405,0.509,15.098-2.019c10.388-3.678,19.867-7.659,21.909-8.122
					c1.401-0.317,2.546-0.1,3.92,0.048c2.522,0.272,4.154,0.575,5.778,0.645c1.894,0.082,3.842-0.052,4.996-1.984
					c0.347-0.58,0.388-1.372-0.023-1.908c0.62-0.306,1.24-0.675,1.627-1.248c0.387-0.573,0.479-1.397,0.046-1.937
					c1.24-0.429,1.903-2.043,1.323-3.219c-0.18-0.365-0.462-0.779-0.269-1.137c0.128-0.237,0.431-0.287,0.674-0.403
					c1.799-0.863,3.19-1.729,3.985-3.055c0.6-0.999,0.779-3.936,0.779-3.936l-3.559,2.034c0,0-3.442,1.264-4.175,1.443
					c-1.255,0.306-2.666,0.333-3.927,0.041c-0.33-0.076-0.668-0.182-0.911-0.417c-0.425-0.41-0.308-1.044,0.149-1.355
					c0.745-0.508,2.518-1.734,3.085-2.435c0.567-0.701,0.934-1.615,0.787-2.504c-0.11-0.668-0.602-1.333-1.277-1.381
					c-0.425-0.03-0.826,0.183-1.199,0.391c-1.859,1.033-4.744,2.655-6.609,3.671c-1.108,0.604-3.28,1.988-4.232,2.835
					c-2.191,1.95-3.896,3.725-7.31,4.216c-3.518,0.505-23.972,3.776-23.972,3.776c-17.529-6.08-21.64-7.8-30.416-10.64
					c-2.807-1.041-9.693-2.295-11.728,0.288c-5.842,7.413-3.412,26.342,4.764,29.691c4.092,1.676,7.794-4.879,7.794-4.879
					S157.575,200.296,164.547,201.196z"/>
				<g>
					<g>
						<g>
							<path style="fill:#303030;" d="M217.294,182.052c0.713-0.285,1.448-0.511,2.198-0.677c0.384-0.085,0.644-0.551,0.524-0.923
								c-0.13-0.403-0.512-0.615-0.923-0.524c-0.75,0.166-1.485,0.392-2.198,0.677c-0.188,0.075-0.342,0.163-0.448,0.345
								c-0.094,0.161-0.134,0.398-0.076,0.578c0.059,0.181,0.171,0.357,0.345,0.448
								C216.883,182.064,217.111,182.125,217.294,182.052L217.294,182.052z"/>
						</g>
					</g>
					<g>
						<g>
							<path style="fill:#303030;" d="M218.046,183.743c-0.029,0.028-0.058,0.056-0.088,0.083c-0.019,0.016-0.039,0.032-0.057,0.048
								c-0.079,0.069,0.149-0.109,0.08-0.062c-0.08,0.054-0.159,0.109-0.243,0.157c-0.089,0.051-0.181,0.098-0.274,0.141
								c-0.025,0.012-0.05,0.023-0.075,0.034c-0.112,0.051,0.045-0.014,0.069-0.029c-0.053,0.033-0.126,0.051-0.184,0.073
								c-0.611,0.23-1.25,0.383-1.885,0.528c-0.383,0.087-0.645,0.549-0.524,0.923c0.13,0.401,0.512,0.617,0.922,0.524
								c0.659-0.15,1.323-0.309,1.954-0.554c0.497-0.193,0.981-0.423,1.365-0.804c0.279-0.277,0.298-0.788,0-1.061
								C218.806,183.467,218.343,183.448,218.046,183.743L218.046,183.743z"/>
						</g>
					</g>
					<g>
						<g>
							<path style="fill:#303030;" d="M216.102,187.734c-0.165,0.126-0.344,0.225-0.534,0.306c0.06-0.025,0.119-0.05,0.179-0.076
								c-0.629,0.259-1.314,0.315-1.975,0.448c-0.385,0.077-0.642,0.556-0.524,0.923c0.132,0.409,0.51,0.606,0.923,0.524
								c0.914-0.183,1.918-0.243,2.688-0.83c0.162-0.124,0.288-0.243,0.345-0.448c0.049-0.18,0.027-0.419-0.076-0.578
								c-0.103-0.16-0.257-0.301-0.448-0.345C216.497,187.617,216.258,187.615,216.102,187.734L216.102,187.734z"/>
						</g>
					</g>
				</g>
			</g>
			<path style="fill:#303030;" d="M130.488,170.315c8.097,0,15.885,4.241,23.932,6.814c-3.942,5.422-5.893,13.687-4.456,21.896
				l1.539,0.242c0,0-0.35,1.977-3.221,1.847c-3.336-0.152-5.947-0.032-7.439,1.459c-2.219,2.219-6.395,3.892-10.637,0.694
				c-2.486-1.874-5.095-5.939-6.134-11.159C122.164,182.521,124.075,170.315,130.488,170.315z"/>
		</g>
	</g>
</g>
</svg>
